<svg id="Layer_1" data-name="Layer 1" xmlns="http://www.w3.org/2000/svg" viewBox="0 0 556.82 244.38"><defs><style>.cls-1{fill:#28a842;}</style></defs><title>Evite-Logo-Register_#28A842</title><path class="cls-1" d="M434.8,184.6c-.5,7.7-7.9,13.9-16.6,13.9s-15.2-6.2-14.7-13.9,7.9-13.9,16.6-13.9S435.3,176.9,434.8,184.6Zm-44.7,22.9H353.8l-22.3,59.3c-4.4,13.1-6.7,20.3-7.1,21.6H324c-.1-3.8-1-11.1-3-21.8l-10.6-59.1H277.6l25.5,106.7h36.7Zm42.7,0H399.5L388.3,314.2h33.3Zm89.2,0H496.7l3.4-33.5-33.8,8.5-2.7,25H447.9l-3.2,24.3h16.5l-4.2,41c-.8,7.9-1,13.7-.6,17.3,1.9,17.6,12,26.5,30.3,26.5a65.74,65.74,0,0,0,23.6-4.3l2.5-24.4c-6,2.2-10.6,3.2-13.7,3.2-6,0-9.2-2.7-9.8-8.1a66.6,66.6,0,0,1,.6-11.4l4.3-39.9h24.9Zm86.6,55.9c11.1-6.1,15.9-15.6,14.6-28.4-.9-8.9-5.1-16.1-12.4-21.7s-17.3-8.4-29.9-8.4c-18.5,0-33.2,6.5-43.8,19.6s-15,29.1-13,48.1c1.5,13.7,6.6,24.5,15.5,32.3s20.5,11.8,35,11.8a77.74,77.74,0,0,0,37-8.8l2.5-24.6c-11.2,6.5-22.5,9.8-33.6,9.8-7,0-12.6-1.6-16.7-4.9a18.82,18.82,0,0,1-7-13.2l-.1-.9a4.48,4.48,0,0,1,.1-1.1C580.2,272.8,597.5,269.5,608.6,263.4Zm-43.9-29.9c4.4-4.7,9.5-7,15.3-7a12.49,12.49,0,0,1,8.3,2.6,9.32,9.32,0,0,1,3.6,6.4c1.3,11.8-10.5,17.6-35.3,17.3C557.5,244.6,560.3,238.2,564.7,233.5Zm-342,138.7a12.29,12.29,0,0,0-8.2,15.3,12.43,12.43,0,0,0,15.4,8.2,12.29,12.29,0,1,0-7.2-23.5ZM205.1,223.1a10.19,10.19,0,0,0-5.2-6.3,14.64,14.64,0,0,0-9.7-1.1c-6.3,1.2-11.4,4.8-15.4,10.8s-5.6,13.6-5,22.8Q210.75,242.1,205.1,223.1Zm16.8,145.2S116.5,333.1,97,269.3c-14.1-45.9,12-99,59.8-113.7S256,170.4,270,216.4C291.4,286.1,221.9,368.3,221.9,368.3Zm19.5-69.5-2.3-27.5c-11,9.4-22.7,15.3-34.9,17.6-7.7,1.4-14.1.8-19.3-2a20.91,20.91,0,0,1-10.4-13.1l-.3-1a2.77,2.77,0,0,1-.1-1.3q38.7-7.65,55.1-21.1c10.9-9,14.3-20.4,10.2-34.1q-4.2-14.4-18-21.3c-9.1-4.7-20.7-5.7-34.5-3.1q-30.6,5.7-44.2,30.4t-4.5,55.5c4.4,14.7,12.2,25.5,23.6,32.4s24.9,8.8,40.8,5.9C217.4,313.2,230.4,307.5,241.4,298.8Zm392.5-91.5h2.6a4.89,4.89,0,0,0,3.2-.9,3.1,3.1,0,0,0,1.1-2.5,2.72,2.72,0,0,0-1-2.4,5,5,0,0,0-3.1-.8h-2.9v6.6Zm0,1.1v7h-1.5V199.6h4.4a6.71,6.71,0,0,1,4.1,1,3.68,3.68,0,0,1,1.4,3.1,4,4,0,0,1-1.1,2.9A5.27,5.27,0,0,1,638,208c.1.1.3.2.4.3s.2.3.3.4l5.1,6.6h-1.4a.37.37,0,0,1-.3-.1.22.22,0,0,1-.2-.2l-4.8-6.3a1.38,1.38,0,0,0-.4-.3c-.1-.1-.4-.1-.7-.1h-2.1Zm-7.6-5.5a12.21,12.21,0,0,0,0,9.2,13.91,13.91,0,0,0,2.5,3.8,10.94,10.94,0,0,0,3.8,2.5,11.75,11.75,0,0,0,10.6-.7,8.76,8.76,0,0,0,2.4-1.9,15.45,15.45,0,0,0,1.9-2.4,13.9,13.9,0,0,0,1.2-2.8,11.24,11.24,0,0,0,.4-3.2,11.44,11.44,0,0,0-.9-4.6,13.91,13.91,0,0,0-2.5-3.8,11.64,11.64,0,0,0-3.8-2.6,12.21,12.21,0,0,0-9.2,0,12.25,12.25,0,0,0-3.8,2.6,11.12,11.12,0,0,0-2.6,3.9m-1.6,8a11.81,11.81,0,0,1,0-6.8A12,12,0,0,1,626,201a12.84,12.84,0,0,1,2-2.6,10,10,0,0,1,2.6-2,10.7,10.7,0,0,1,3.1-1.3,11.81,11.81,0,0,1,6.8,0,12,12,0,0,1,3.1,1.3,16.38,16.38,0,0,1,2.6,2,10,10,0,0,1,2,2.6,10.7,10.7,0,0,1,1.3,3.1,11.81,11.81,0,0,1,0,6.8,12,12,0,0,1-1.3,3.1,16.38,16.38,0,0,1-2,2.6,12.88,12.88,0,0,1-5.7,3.3,11.81,11.81,0,0,1-6.8,0,12,12,0,0,1-3.1-1.3,12.84,12.84,0,0,1-2.6-2,12.05,12.05,0,0,1-2-2.6,16.92,16.92,0,0,1-1.3-3.1" transform="translate(-93.18 -151.83)"/></svg>